<svg width="27" height="26" viewBox="0 0 27 26" fill="none" xmlns="http://www.w3.org/2000/svg">
<path d="M14.4679 0.740625L17.5429 6.97188C17.7366 7.3625 18.1085 7.63438 18.5429 7.69688L25.4179 8.69688C26.5054 8.85625 26.9397 10.1938 26.1522 10.9594L21.1772 15.8094C20.8647 16.1156 20.721 16.5531 20.796 16.9844L21.971 23.8313C22.1554 24.9156 21.0179 25.7406 20.046 25.2313L13.896 21.9969C13.5085 21.7938 13.046 21.7938 12.6616 21.9969L6.50847 25.2313C5.53347 25.7438 4.39597 24.9156 4.58347 23.8313L5.75847 16.9844C5.83347 16.5531 5.68972 16.1156 5.37722 15.8094L0.402224 10.9594C-0.385276 10.1906 0.0490986 8.85313 1.1366 8.69688L8.0116 7.69688C8.44285 7.63438 8.81785 7.3625 9.0116 6.97188L12.0866 0.740625C12.5741 -0.246875 13.9804 -0.246875 14.4679 0.740625Z" fill="#FFD66C"/>
</svg>
