<svg width="77" height="16" viewBox="0 0 77 16" fill="none" xmlns="http://www.w3.org/2000/svg">
<path d="M2.32 1.056L1.984 0.447999C0.960001 0.912 0 2.016 0 3.44C0 4.32 0.56 4.96 1.248 4.96C1.968 4.96 2.336 4.416 2.336 3.92C2.336 3.344 1.936 2.896 1.344 2.896C1.168 2.896 0.992001 2.944 0.896001 3.024C0.896001 2.32 1.456 1.488 2.32 1.056ZM5.392 1.056L5.056 0.447999C4.032 0.912 3.056 2.016 3.056 3.44C3.056 4.32 3.632 4.96 4.32 4.96C5.04 4.96 5.408 4.416 5.408 3.92C5.408 3.344 5.008 2.896 4.4 2.896C4.224 2.896 4.064 2.944 3.968 3.024C3.968 2.32 4.528 1.488 5.392 1.056ZM11.68 3.04H7.328V4.208H11.68V6.608H7.568V7.744H11.68V10.24H6.96V11.392H11.68V15.216H12.88V0.688H11.68V3.04ZM21.264 10.24H16.48V7.744H20.672V6.608H16.48V4.208H20.992V3.04H16.48V0.704H15.264V15.232H16.48V11.408H21.264V10.24ZM27.024 6.16H33.056V7.728H27.024V6.16ZM35.712 9.936H30.8V8.624H34.24V5.264H25.888V8.624H29.6V9.936H24.464V14.512H25.648V11.024H29.6V15.232H30.8V11.024H34.512V13.264C34.512 13.456 34.432 13.504 34.192 13.52C33.952 13.536 33.104 13.536 32.144 13.504C32.304 13.824 32.496 14.256 32.56 14.592C33.792 14.592 34.592 14.592 35.088 14.4C35.584 14.224 35.712 13.904 35.712 13.28V9.936ZM34.16 0.735999C33.856 1.312 33.28 2.16 32.832 2.688L33.792 3.088C34.256 2.608 34.864 1.872 35.392 1.168L34.16 0.735999ZM36.688 3.088H30.704V0.608H29.504V3.088H26.16L27.152 2.64C26.88 2.112 26.32 1.328 25.792 0.768L24.736 1.2C25.216 1.776 25.744 2.56 25.984 3.088H23.424V6.496H24.56V4.128H35.52V6.496H36.688V3.088ZM45.456 4.16H46.576V2.944H49.2V4.16H50.32V2.944H53.072V1.92H50.32V0.639999H49.2V1.92H46.576V0.639999H45.456V1.92H42.784V2.944H45.456V4.16ZM41.92 6.832C41.344 6.384 40.272 5.744 39.424 5.328L38.72 6.16C39.584 6.608 40.656 7.28 41.184 7.76L41.92 6.832ZM40.096 14.864C40.88 13.44 41.808 11.536 42.496 9.92L41.568 9.168C40.8 10.912 39.76 12.928 39.04 14.112L40.096 14.864ZM39.504 1.776C40.336 2.288 41.376 3.04 41.888 3.552L42.656 2.672C42.112 2.176 41.056 1.472 40.24 0.992L39.504 1.776ZM47.088 7.088C47.12 6.64 47.12 6.144 47.136 5.648H48.96C48.96 6.144 48.944 6.64 48.928 7.088H47.088ZM53.168 5.648V4.64H42.704V5.648H46.144C46.144 6.144 46.128 6.64 46.112 7.088H43.12V15.168H44.272V8.144H46.032C45.856 9.968 45.424 11.392 44.352 12.4C44.592 12.528 44.992 12.896 45.152 13.072C45.808 12.368 46.272 11.552 46.56 10.576C46.88 10.976 47.184 11.424 47.344 11.744L48.032 11.072C47.808 10.64 47.28 10.032 46.816 9.52C46.896 9.104 46.96 8.624 47.008 8.144H48.848C48.672 10.128 48.224 11.696 47.152 12.816C47.392 12.96 47.824 13.264 47.968 13.424C48.656 12.64 49.12 11.696 49.408 10.592C49.872 11.28 50.272 12.016 50.496 12.528L51.296 11.904C51.024 11.216 50.304 10.144 49.664 9.344C49.728 8.96 49.776 8.56 49.808 8.144H51.6V14.016C51.6 14.224 51.536 14.272 51.312 14.288C51.12 14.304 50.416 14.304 49.632 14.288C49.76 14.528 49.904 14.848 49.968 15.104C51.072 15.104 51.76 15.104 52.16 14.96C52.576 14.8 52.704 14.576 52.704 14.016V7.088H49.888C49.904 6.64 49.92 6.144 49.936 5.648H53.168ZM56 14.8C56.816 14.048 57.472 12.864 57.92 11.904L56.928 11.456C56.544 12.384 55.84 13.536 55.04 14.24L56 14.8ZM65.856 8.048H58.208V6.944H65.856V8.048ZM65.856 9.936H58.208V8.832H65.856V9.936ZM67.024 6.128H57.072V10.752H61.088L60.544 11.264C61.424 11.776 62.512 12.528 63.024 13.056L63.76 12.32C63.264 11.856 62.304 11.184 61.472 10.752H67.024V6.128ZM60.928 14.096C60.096 14.096 59.952 14.016 59.952 13.648V11.584H58.784V13.648C58.784 14.784 59.216 15.088 60.832 15.088H63.84C65.12 15.088 65.488 14.656 65.616 12.896C65.312 12.816 64.848 12.656 64.592 12.48C64.512 13.904 64.416 14.096 63.728 14.096H60.928ZM65.84 11.728C66.64 12.592 67.52 13.76 67.872 14.56L68.88 14.048C68.48 13.264 67.584 12.112 66.784 11.312L65.84 11.728ZM64.576 2.768C64.4 3.232 64.112 3.856 63.84 4.352H60.144C60.016 3.888 59.728 3.248 59.44 2.768H64.576ZM65.056 4.352C65.296 3.936 65.552 3.472 65.808 2.976L64.88 2.768H68.064V1.792H62.96C62.768 1.376 62.512 0.863999 62.24 0.495999L61.088 0.735999C61.28 1.056 61.488 1.424 61.648 1.792H55.936V2.768H59.344L58.336 2.992C58.576 3.408 58.784 3.936 58.912 4.352H55.216V5.328H68.88V4.352H65.056ZM73.68 4.416L74.016 5.024C75.04 4.544 76.016 3.456 76.016 2.032C76.016 1.152 75.44 0.511999 74.752 0.511999C74.032 0.511999 73.664 1.04 73.664 1.552C73.664 2.128 74.064 2.576 74.656 2.576C74.832 2.576 75.008 2.512 75.104 2.448C75.104 3.152 74.544 3.984 73.68 4.416ZM70.608 4.416L70.944 5.024C71.968 4.544 72.944 3.456 72.944 2.032C72.944 1.152 72.368 0.511999 71.68 0.511999C70.96 0.511999 70.592 1.04 70.592 1.552C70.592 2.128 70.992 2.576 71.6 2.576C71.776 2.576 71.936 2.512 72.032 2.448C72.032 3.152 71.472 3.984 70.608 4.416Z" fill="#FA9929"/>
</svg>
